<svg xmlns="http://www.w3.org/2000/svg" width="19" height="18" viewBox="0 0 19 18">
    <g fill="none" fill-rule="evenodd">
        <g fill="#56A9FF" fill-rule="nonzero">
            <g>
                <g>
                    <g>
                        <g>
                            <g>
                                <path d="M16.354 4.646c-.196-.195-.512-.195-.707 0L14 6.293V3.5c0-.254-.204-.41-.367-.574L11.148.441C10.97.262 10.778 0 10.5 0H.5C.224 0 0 .224 0 .5v17c0 .276.224.5.5.5h13c.276 0 .5-.224.5-.5v-6.793l2-2 .293.293-1.647 1.646c-.195.196-.195.512 0 .707.098.098.226.147.354.147.128 0 .256-.049.354-.146l2-2c.195-.196.195-.512 0-.707L16.707 8l1.146-1.146c.196-.196.196-.512 0-.707l-1.5-1.5zM11 1.707L12.293 3H11V1.707zM13 17H1V1h9v2.5c0 .276.224.5.5.5H13v3.293l-4.854 4.853c-.064.064-.11.145-.131.233L7.61 14H7c-.276 0-.5-.224-.5-.5S6.276 13 6 13s-.5.224-.5.5-.224.5-.5.5-.5-.224-.5-.5v-1c0-.276-.224-.5-.5-.5s-.5.224-.5.5v1c0 .276-.224.5-.5.5s-.5.224-.5.5.224.5.5.5c.384 0 .734-.145 1-.383.266.238.616.383 1 .383s.734-.145 1-.383c.266.238.616.383 1 .383h1c.039 0 .076-.005.113-.014l.008-.001 2-.5c.088-.022.168-.067.232-.132L13 11.707V17zm-3.256-3.451l-1.057.264.264-1.057L14.5 7.207l.793.793-5.549 5.549zM16 7.293l-.793-.793.793-.793.793.793-.793.793z" transform="translate(-1469 -879) translate(64 724) translate(23.907 16) translate(5.244 40) translate(3.016 84.376) translate(1373.072 14.624)"/>
                                <path d="M3.5 4h3c.276 0 .5-.224.5-.5S6.776 3 6.5 3h-3c-.276 0-.5.224-.5.5s.224.5.5.5zM3.5 6h7c.276 0 .5-.224.5-.5s-.224-.5-.5-.5h-7c-.276 0-.5.224-.5.5s.224.5.5.5zM3.5 8h7c.276 0 .5-.224.5-.5s-.224-.5-.5-.5h-7c-.276 0-.5.224-.5.5s.224.5.5.5zM3.5 10h5c.276 0 .5-.224.5-.5S8.776 9 8.5 9h-5c-.276 0-.5.224-.5.5s.224.5.5.5z" transform="translate(-1469 -879) translate(64 724) translate(23.907 16) translate(5.244 40) translate(3.016 84.376) translate(1373.072 14.624)"/>
                            </g>
                        </g>
                    </g>
                </g>
            </g>
        </g>
    </g>
</svg>
