<svg xmlns="http://www.w3.org/2000/svg" width="21" height="18" viewBox="0 0 21 18">
    <g fill="none" fill-rule="evenodd">
        <g fill="#13B600" fill-rule="nonzero">
            <g>
                <g>
                    <g>
                        <g>
                            <g>
                                <g>
                                    <g>
                                        <path d="M8 0c1.271 0 2.473.296 3.54.823-.112.419-.172.858-.172 1.31 0 .15.007.296.02.442C10.404 1.957 9.242 1.6 8 1.6 4.472 1.6 1.6 4.472 1.6 8c0 3.528 2.872 6.4 6.4 6.4 3.528 0 6.4-2.872 6.4-6.4 0-.437-.044-.864-.128-1.276.52.248 1.088.41 1.687.467.027.265.041.535.041.809 0 4.419-3.581 8-8 8-4.419 0-8-3.581-8-8 0-4.419 3.581-8 8-8z" transform="translate(-1420 -879) translate(64 724) translate(23.907 16) translate(5.244 40) translate(3.016 84.376) translate(1323.834 14.624) translate(0 2)"/>
                                        <path d="M6.287 11.19c-.224-.03-.426-.157-.552-.35l-1.6-2.4c-.245-.368-.144-.862.22-1.108.37-.245.864-.145 1.11.22l1.105 1.66 4.117-3.43c.34-.283.844-.236 1.127.101.284.34.236.845-.1 1.128l-4.8 4c-.208.211-.59.186-.627.18z" transform="translate(-1420 -879) translate(64 724) translate(23.907 16) translate(5.244 40) translate(3.016 84.376) translate(1323.834 14.624) translate(0 2)"/>
                                    </g>
                                    <path d="M16.133 0c1.097 0 2.148.435 2.923 1.21.775.776 1.21 1.827 1.21 2.923 0 2.283-1.85 4.134-4.133 4.134-2.282 0-4.133-1.85-4.133-4.134C12 1.851 13.85 0 16.133 0zm.785 3.35l-1.425.229-.012.082c-.005.02-.008.04-.009.06.06-.002.12 0 .18.006.06.004.116.034.151.083.035.05.047.111.032.17-.004.034-.01.068-.017.102-.098.342-.195.693-.29 1.03-.096.337-.201.672-.284 1.012-.094.387.158.656.552.611.169-.02.329-.087.461-.193.253-.191.424-.448.589-.724l-.115-.07c-.082.112-.154.218-.237.317-.057.067-.122.127-.194.179-.036.02-.08.02-.115 0-.033-.03-.052-.071-.052-.115.006-.06.02-.12.04-.177.21-.727.417-1.451.623-2.173l.023-.083.099-.345zm-.389-1.82c-.283 0-.513.23-.513.514-.001.136.052.268.148.365.096.098.226.153.363.154.285-.003.515-.234.516-.52 0-.283-.23-.513-.514-.513z" transform="translate(-1420 -879) translate(64 724) translate(23.907 16) translate(5.244 40) translate(3.016 84.376) translate(1323.834 14.624)"/>
                                </g>
                            </g>
                        </g>
                    </g>
                </g>
            </g>
        </g>
    </g>
</svg>
