<svg xmlns="http://www.w3.org/2000/svg" width="18" height="18" viewBox="0 0 18 18">
    <g fill="none" fill-rule="evenodd">
        <g fill="#13B600" fill-rule="nonzero">
            <g>
                <g>
                    <g>
                        <g>
                            <g>
                                <path d="M9 0C4.029 0 0 4.029 0 9s4.029 9 9 9 9-4.029 9-9-4.029-9-9-9zm0 16.2c-3.969 0-7.2-3.231-7.2-7.2 0-3.969 3.231-7.2 7.2-7.2 3.969 0 7.2 3.231 7.2 7.2 0 3.969-3.231 7.2-7.2 7.2z" transform="translate(-1470 -1262) translate(64 724) translate(23.907 16) translate(5.244 474) translate(0 35.42) translate(1376.85 12.58)"/>
                                <path d="M7.072 12.59c-.251-.036-.478-.178-.62-.394l-1.8-2.7c-.276-.415-.163-.97.248-1.247.415-.277.971-.163 1.248.248l1.243 1.867 4.631-3.858c.383-.32.95-.266 1.269.113.319.383.266.95-.113 1.268l-5.4 4.5c-.234.238-.663.21-.706.202z" transform="translate(-1470 -1262) translate(64 724) translate(23.907 16) translate(5.244 474) translate(0 35.42) translate(1376.85 12.58)"/>
                            </g>
                        </g>
                    </g>
                </g>
            </g>
        </g>
    </g>
</svg>
