<svg xmlns="http://www.w3.org/2000/svg" width="11" height="12" viewBox="0 0 11 12">
    <g fill="none" fill-rule="evenodd">
        <g fill="#56A9FF" fill-rule="nonzero">
            <g>
                <g>
                    <g>
                        <g>
                            <path d="M7.038 3.149H3.28C1.436 4.976-.855 7.849.322 9.943 1.253 11.6 3.357 12.027 5.398 12c2.041-.029 4.02-.514 4.7-2.056.868-1.97-1.348-4.922-3.06-6.794zM5.502 9.553v.59h-.567v-.55c-.387-.017-.763-.121-.983-.249l.173-.676c.243.133.585.254.96.254.33 0 .556-.127.556-.359 0-.22-.185-.358-.613-.503-.62-.208-1.041-.498-1.041-1.059 0-.509.358-.908.977-1.03v-.55h.567v.51c.388.017.648.098.84.19l-.169.655c-.15-.064-.416-.197-.833-.197-.376 0-.497.162-.497.324 0 .19.202.312.694.497.688.244.966.562.966 1.082 0 .515-.364.955-1.03 1.07zM8.15.315c-.516-.313-1.151.814-1.604.797C6.093 1.095 5.735-.018 5.218 0 4.7.018 4.495 1.03 4.08 1.126 3.665 1.22 2.63-.07 2.215.384 1.878.75 2.908 2.218 3.31 2.76H7.022c.422-.576 1.55-2.19 1.127-2.446z" transform="translate(-1345 -486) translate(24 348) translate(16 68) translate(1305 67) translate(0 3)"/>
                        </g>
                    </g>
                </g>
            </g>
        </g>
    </g>
</svg>
