<svg xmlns="http://www.w3.org/2000/svg" width="13" height="13" viewBox="0 0 13 13">
    <g fill="none" fill-rule="evenodd">
        <g fill="#56A9FF" fill-rule="nonzero">
            <g>
                <g>
                    <g>
                        <path d="M10.582 2.678c.554.012.999.464.999 1.02v5.893h.411c.14 0 .255.113.255.255v.95c0 .689-.558 1.244-1.241 1.244H1.239C.556 12.04 0 11.482 0 10.796v-.95c0-.14.113-.255.255-.255h.407V3.698c0-.556.45-1.01 1-1.02v.51c-.271.012-.49.238-.49.51v5.893h3.024c.07 0 .135.029.18.075.046.045.078.108.078.18v.522h3.335v-.496c-.003-.01-.003-.019-.003-.026 0-.07.032-.135.077-.18.046-.046.109-.075.178-.075h3.03V3.698c0-.272-.217-.498-.489-.51zM8.41.075c.1-.099.26-.099.359 0l.435.435.434-.435c.074-.073.185-.094.283-.056.1.041.16.135.16.239v8.32H2.177V.258c0-.106.062-.198.158-.239.097-.038.205-.019.28.056L3.05.51l.433-.435c.101-.099.265-.099.363 0l.434.435.435-.435c.101-.099.262-.099.36 0l.436.435.436-.435c.101-.099.262-.099.36 0l.436.435.436-.435c.099-.099.26-.099.358 0l.436.435zM6.124 2.139c-.142 0-.255.113-.255.255v.212c-.484.115-.845.549-.845 1.068 0 .607.493 1.1 1.1 1.1.324 0 .59.265.59.59 0 .324-.266.589-.59.589-.325 0-.59-.265-.59-.59 0-.14-.113-.255-.255-.255-.142 0-.255.113-.255.255 0 .52.36.953.845 1.069v.211c0 .142.113.255.255.255.142 0 .255-.113.255-.255v-.211c.483-.118.844-.551.844-1.069 0-.606-.493-1.1-1.1-1.1-.327 0-.591-.264-.589-.589 0-.325.265-.59.59-.59.324 0 .59.265.59.59 0 .142.112.255.254.255.142 0 .255-.113.255-.255 0-.52-.36-.953-.844-1.068v-.212c0-.142-.113-.255-.255-.255z" transform="translate(-945 -421) translate(24 348) translate(16 68) translate(905 3) translate(0 2)"/>
                    </g>
                </g>
            </g>
        </g>
    </g>
</svg>
