<svg xmlns="http://www.w3.org/2000/svg" width="14" height="12" viewBox="0 0 14 12">
    <g fill="none" fill-rule="evenodd">
        <g fill="#56A9FF" fill-rule="nonzero">
            <g>
                <g>
                    <g>
                        <path d="M13.653 2.065V10.8c0 .662-.538 1.2-1.2 1.2H1.2C.538 12 0 11.462 0 10.8V2.064L1.438 6.38c.164.49.621.82 1.139.82h2.25v.4c0 .221.179.4.4.4h3.2c.22 0 .4-.179.4-.4v-.4h2.25c.517 0 .974-.33 1.138-.82l1.438-4.315zM8.027 6.4v.8h-2.4v-.8h2.4zm.4-6.4c.661 0 1.2.538 1.2 1.2v.4h3.338l-1.509 4.527c-.054.163-.207.273-.38.273h-2.25V6c0-.221-.178-.4-.4-.4h-3.2c-.22 0-.4.179-.4.4v.4h-2.25c-.172 0-.324-.11-.38-.273L.689 1.6h3.339v-.4c0-.662.538-1.2 1.2-1.2zm0 .8h-3.2c-.221 0-.4.18-.4.4v.4h4v-.4c0-.22-.18-.4-.4-.4z" transform="translate(-41 -483) translate(24 348) translate(16 68) translate(1 66) translate(0 1)"/>
                    </g>
                </g>
            </g>
        </g>
    </g>
</svg>
