<svg width="13" height="13" viewBox="0 0 13 13" xmlns="http://www.w3.org/2000/svg">
    <path d="M2.507.013C2.019.159.848 1.378.702 1.866c-.292.975.537 3.17 1.024 4.048 1.561 2.585 2.78 3.755 5.268 5.316.634.341 1.755.78 2.535.829.488 0 .878-.244 1.122-.488.683-.731 1.61-1.073.927-1.853L10.066 8.01c-.146-.195-.44-.341-.683-.195-.244.146-1.17.975-1.414 1.22-1.073.438-4.536-3.561-4.585-4.732 0-.536 1.025-.975 1.415-1.56a.6.6 0 0 0 .048-.585C4.701 1.866 3.384.403 3.092.208c-.195-.147-.39-.244-.586-.195z" fill="#56A9FF" fill-rule="nonzero"/>
</svg>
