<svg width="18" height="24" viewBox="0 0 18 24" xmlns="http://www.w3.org/2000/svg">
    <g fill="#B7B7B7" fill-rule="nonzero">
        <path d="M.486 0A.545.545 0 0 0 0 .547v22.898c0 .301.244.545.545.545h16.04a.545.545 0 0 0 .546-.545V5.734a.545.545 0 0 0-.145-.375C15.38 3.631 13.772 1.908 12.165.18a.545.545 0 0 0-.4-.178H.544a.545.545 0 0 0-.06 0zm.604 1.091h9.695v5.111c0 .301.244.546.545.546h4.71v16.151H1.09V1.091z"/>
        <path d="M6.593 10.814a.546.546 0 1 0 .052 1.09h7.147a.545.545 0 1 0 0-1.09H6.593zM6.593 13.745a.546.546 0 1 0 .052 1.09h7.147a.545.545 0 1 0 0-1.09H6.593zM6.593 16.675a.546.546 0 1 0 .052 1.09h7.147a.545.545 0 1 0 0-1.09H6.593zM6.593 19.605a.546.546 0 1 0 .052 1.09h7.147a.545.545 0 1 0 0-1.09H6.593zM5.199 9.299a.545.545 0 0 0-.481.279l-.787 1.361-.038-.066a.545.545 0 1 0-.944.545l.51.883a.545.545 0 0 0 .943 0l1.26-2.178a.545.545 0 0 0-.463-.824zM5.145 12.27a.545.545 0 0 0-.426.282c-.263.455-.528.907-.792 1.363-.012-.022-.021-.046-.034-.068a.545.545 0 1 0-.946.536l.512.886a.545.545 0 0 0 .945 0c.42-.727.841-1.447 1.26-2.172a.545.545 0 0 0-.519-.826zM5.196 15.235a.545.545 0 0 0-.477.281c-.262.453-.521.91-.783 1.363-.013-.023-.03-.045-.043-.068a.546.546 0 1 0-.946.545c.171.301.344.594.512.886a.545.545 0 0 0 .945 0l1.26-2.18a.545.545 0 0 0-.468-.827zM5.199 18.207a.545.545 0 0 0-.481.28l-.787 1.362-.038-.067a.545.545 0 1 0-.945.544l.51.886a.545.545 0 0 0 .945 0l1.259-2.18a.545.545 0 0 0-.463-.825z"/>
    </g>
</svg>
