<svg width="24" height="25" viewBox="0 0 24 25" xmlns="http://www.w3.org/2000/svg" xmlns:xlink="http://www.w3.org/1999/xlink">
    <defs>
        <path d="m7.982 7.082-5.44 5.44a.956.956 0 0 1-1.356 0l-.904-.904a.956.956 0 0 1 0-1.356l3.856-3.856L.282 2.55a.956.956 0 0 1 0-1.356l.9-.912a.956.956 0 0 1 1.356 0l5.44 5.44c.38.376.38.984.004 1.36zm7.68-1.36-5.44-5.44a.956.956 0 0 0-1.356 0l-.904.904a.956.956 0 0 0 0 1.356l3.856 3.856-3.856 3.856a.956.956 0 0 0 0 1.356l.904.904a.956.956 0 0 0 1.356 0l5.44-5.44a.951.951 0 0 0 0-1.352z" id="zaz75sthga"/>
    </defs>
    <use fill="#4A4A4A" xlink:href="#zaz75sthga" transform="translate(4.03 6.424)" fill-rule="evenodd"/>
</svg>
