<svg xmlns="http://www.w3.org/2000/svg" width="9" height="12" viewBox="0 0 9 12">
    <g fill="none" fill-rule="evenodd">
        <g fill="#56A9FF">
            <g>
                <g>
                    <g>
                        <g>
                            <path d="M2.287 1.144c0 .632-.511 1.143-1.143 1.143S0 1.776 0 1.144.512 0 1.144 0c.632 0 1.143.512 1.143 1.144M8.108 1.144c0 .632-.512 1.143-1.144 1.143-.632 0-1.144-.511-1.144-1.143S6.332 0 6.964 0c.632 0 1.144.512 1.144 1.144M2.287 5.795c0 .632-.511 1.144-1.143 1.144S0 6.427 0 5.795C0 5.163.512 4.65 1.144 4.65c.632 0 1.143.512 1.143 1.144M8.108 5.795c0 .632-.512 1.144-1.144 1.144-.632 0-1.144-.512-1.144-1.144 0-.632.512-1.144 1.144-1.144.632 0 1.144.512 1.144 1.144M2.287 10.446c0 .632-.511 1.144-1.143 1.144S0 11.078 0 10.446c0-.632.512-1.144 1.144-1.144.632 0 1.143.512 1.143 1.144M8.108 10.446c0 .632-.512 1.144-1.144 1.144-.632 0-1.144-.512-1.144-1.144 0-.632.512-1.144 1.144-1.144.632 0 1.144.512 1.144 1.144" transform="translate(-80 -644) translate(24 541) translate(24 53) translate(16 40) translate(16 10)"/>
                        </g>
                    </g>
                </g>
            </g>
        </g>
    </g>
</svg>
