<svg xmlns="http://www.w3.org/2000/svg" width="24" height="24" viewBox="0 0 24 24">
    <g fill="none" fill-rule="evenodd">
        <g fill="#D0021B" fill-rule="nonzero">
            <g>
                <g>
                    <g>
                        <path d="M13.253 15.792H4.675c-.371 0-.744.002-1.114 0-.066 0-.132-.005-.198-.012.061.009.123.017.184.024-.123-.017-.242-.048-.358-.095l.166.07c-.12-.05-.23-.115-.333-.195l.14.11c-.095-.075-.18-.16-.254-.255l.11.14c-.079-.102-.145-.213-.195-.332l.07.166c-.047-.116-.079-.235-.096-.358.009.06.017.123.024.183-.019-.154-.012-.312-.012-.466v-.83-1.263-1.555V9.42 7.687 6.066 4.7v-.988c0-.156.002-.312 0-.468v-.02l-.692.692h12.06c.165 0 .328.002.492 0h.02l-.692-.693V15.037c0 .068-.003.134-.012.201.009-.06.017-.123.024-.183-.017.123-.048.242-.095.358l.07-.166c-.05.12-.115.23-.195.332l.11-.14c-.075.095-.16.18-.255.255l.14-.11c-.102.078-.213.144-.332.194l.166-.069c-.116.047-.236.078-.358.095l.183-.024c-.062.009-.126.012-.19.012-.179.002-.364.076-.49.203-.12.12-.212.317-.203.49.017.372.305.696.693.693.578-.006 1.162-.243 1.553-.674.365-.402.575-.914.578-1.46.002-.14 0-.282 0-.422v-1.053-1.517-1.79-1.895-1.832V4.96 3.801c0-.184.002-.369 0-.552v-.025c0-.374-.317-.692-.692-.692H2.63c-.165 0-.327-.002-.492 0h-.02c-.375 0-.693.317-.693.692v11.694c0 .41.07.807.272 1.17.374.68 1.115 1.088 1.884 1.09H13.253c.362 0 .71-.319.692-.693-.017-.374-.305-.693-.692-.693z" transform="translate(-742 -566) translate(302 376) translate(440 190) translate(4 3)"/>
                        <path d="M10.428 0H6.44c-.351 0-.713.078-1.006.279-.5.34-.807.878-.81 1.487-.003.471 0 .942 0 1.413v.047c0 .374.317.693.693.693h5.42c.249 0 .5.003.75 0h.01c.374 0 .692-.317.692-.693v-1.02-.435c-.001-.438-.159-.826-.432-1.163-.32-.392-.833-.603-1.329-.608-.362-.003-.71.322-.692.693.017.379.304.689.692.692.049 0 .096.004.142.009-.06-.009-.123-.017-.183-.024.092.014.18.036.266.072l-.166-.069c.083.037.161.082.234.135l-.14-.109c.078.06.145.128.206.206l-.11-.14c.054.073.1.15.136.234l-.07-.167c.035.087.06.175.073.267l-.024-.183c.023.19.009.39.009.58v1.028l.692-.692H6.074c-.25 0-.501-.006-.75 0h-.01l.692.692V1.891c0-.092-.002-.184.008-.275l-.024.183c.014-.092.037-.18.073-.267l-.07.167c.037-.083.082-.161.136-.234l-.11.14c.061-.078.129-.145.207-.206l-.14.11c.072-.054.15-.1.233-.136l-.166.07c.087-.035.175-.06.267-.073l-.184.024c.163-.02.333-.009.497-.009h3.692c.362 0 .71-.318.693-.692-.014-.376-.302-.693-.69-.693z" transform="translate(-742 -566) translate(302 376) translate(440 190) translate(4 3)"/>
                        <path d="M16.118 2.532h-14.8c-.199 0-.398-.002-.599 0H.693c-.362 0-.71.318-.692.692.017.376.304.693.692.693H15.493c.2 0 .399.002.6 0h.025c.362 0 .71-.319.693-.693-.017-.375-.305-.692-.693-.692zM6.887 13.368v-.7-1.68-2.025-1.758c0-.284.005-.568 0-.852v-.012c0-.362-.318-.71-.692-.692-.376.017-.693.304-.693.692v6.163c0 .284-.005.568 0 .852v.012c0 .362.319.71.693.693.374-.016.692-.303.692-.693zM11.306 13.368v-.7-1.68-2.025-1.758c0-.284.005-.568 0-.852v-.012c0-.362-.318-.71-.692-.692-.376.017-.693.304-.693.692v6.163c0 .284-.005.568 0 .852v.012c0 .362.319.71.693.693.375-.016.692-.303.692-.693z" transform="translate(-742 -566) translate(302 376) translate(440 190) translate(4 3)"/>
                    </g>
                </g>
            </g>
        </g>
    </g>
</svg>
