<svg xmlns="http://www.w3.org/2000/svg" width="17" height="16" viewBox="0 0 17 16">
    <g fill="none" fill-rule="evenodd">
        <g fill="#D0021B" fill-rule="nonzero">
            <g>
                <g>
                    <g>
                        <g>
                            <path d="M9.017 0c.821 0 1.497.665 1.497 1.472v.522h3.38c.628 0 .628.949 0 .949h-1.11v10.016c0 1.14-.966 2.041-2.077 2.041h-7.05c-1.158 0-2.076-.902-2.076-2.041V2.943H.471c-.628 0-.628-.95 0-.95h3.38v-.521C3.85.665 4.527 0 5.348 0h3.67zm2.8 2.943h-9.27v10.016c0 .617.483 1.092 1.11 1.092h7.05c.58 0 1.11-.475 1.11-1.092V2.943zM5.622 5.458v5.96c0 .61-1.25.61-1.25 0v-5.96c0-.61 1.25-.61 1.25 0zm4.06 0v5.96c0 .61-1.25.61-1.25 0v-5.96c0-.61 1.25-.61 1.25 0zm-1.874 0v5.96c0 .61-1.25.61-1.25 0v-5.96c0-.61 1.25-.61 1.25 0zM9.017.949h-3.67c-.29 0-.53.238-.53.523v.522h4.731v-.522c0-.285-.241-.523-.53-.523z" transform="translate(-1567 -642) translate(24 541) translate(721 15) translate(0 38) translate(14 40) translate(809.049 9)"/>
                        </g>
                    </g>
                </g>
            </g>
        </g>
    </g>
</svg>
