<svg width="24" height="24" viewBox="0 0 24 24" xmlns="http://www.w3.org/2000/svg">
    <path d="M1.188 0C.536 0 0 .536 0 1.188v21.375c0 .65.536 1.187 1.188 1.187h15.041c.651 0 1.188-.536 1.188-1.187v-2.116c.007-.536-.8-.536-.792 0v2.116c0 .226-.17.395-.396.395H1.188a.387.387 0 0 1-.396-.395V1.188c0-.227.17-.396.396-.396h12.271v1.98c0 .65.535 1.186 1.186 1.186h1.98v8.052c-.008.536.8.536.792 0V3.563a.396.396 0 0 0-.116-.28L14.134.116a.396.396 0 0 0-.28-.116H1.188zM14.25 1.352l1.813 1.814h-1.419a.384.384 0 0 1-.394-.394v-1.42zM5.146 3.166c-.54-.012-.54.804 0 .792h6.332c.54.012.54-.804 0-.792H5.146zM2.77 5.542c-.54-.012-.54.803 0 .791h8.708c.54.012.54-.803 0-.791H2.77zm10.292 0c-.54-.012-.54.803 0 .791h1.583c.54.012.54-.803 0-.791h-1.583zM2.77 8.709h11.875c.54.012.54-.804 0-.792H2.751c-.534.037-.498.805.02.792zm19.794.745c-.317 0-.634.12-.874.36l-.775.775a.96.96 0 0 0-1.007.215l-7.124 7.124a.396.396 0 0 0-.103.172l-.791 2.77c-.088.3.19.579.49.491l2.77-.792a.396.396 0 0 0 .17-.102l6.847-6.843.067.067a.78.78 0 0 1 0 1.119l-1.932 1.932c-.397.374.19.956.561.558l1.931-1.932a1.587 1.587 0 0 0 0-2.238l-.131-.132a.972.972 0 0 0 0-.662l.775-.775c.479-.48.479-1.269 0-1.748a1.231 1.231 0 0 0-.874-.359zm-.001.787c.112 0 .224.044.313.133a.435.435 0 0 1 0 .629l-.71.707-.629-.627.712-.709a.442.442 0 0 1 .314-.133zm-19.793.844h1.584c.529 0 .529-.793 0-.793H2.751c-.547.026-.51.818.02.793zm11.875 0c.528 0 .528-.793 0-.793H5.917c-.549.028-.508.82.02.793h8.708zm5.94.226c.04 0 .08.017.114.051l1.187 1.19c.07.069.07.16 0 .23l-4.073 4.074-1.42-1.419 4.076-4.075a.163.163 0 0 1 .115-.051zM2.77 12.665c-.54-.012-.54.804 0 .792h11.875c.54.012.54-.804 0-.792H2.77zm0 2.376c-.54-.012-.54.804 0 .792h5.543c.54.012.54-.804 0-.792H2.77zm7.127 0c-.54-.012-.54.804 0 .792h1.58c.54.012.54-.804 0-.792h-1.58zm5.936.957 1.419 1.42-2.211 2.212-1.419-1.422 2.211-2.21zm-2.574 2.966 1.028 1.028-1.439.41.41-1.438zM8.1 21.913a.438.438 0 0 1-.423-.321l-.404-1.464-1.597 1.026a.439.439 0 0 1-.474-.738l2.097-1.347a.438.438 0 0 1 .66.252l.291 1.054.35-.581a.438.438 0 0 1 .752 0l.388.649 1.157-.786a.439.439 0 1 1 .492.727L9.85 21.43a.438.438 0 0 1-.623-.137l-.25-.42-.501.829a.438.438 0 0 1-.375.21z" fill="#56A9FF" fill-rule="nonzero"/>
</svg>
