<svg width="14" height="17" viewBox="0 0 14 17" xmlns="http://www.w3.org/2000/svg">
    <path d="M1.877 6.341h6.636a.295.295 0 1 0 0-.59H1.877a.295.295 0 1 0 0 .59zm0-1.66h6.636a.295.295 0 0 0 0-.59H1.877a.295.295 0 0 0 0 .59zm5.358 2.853a.295.295 0 0 0-.295-.294H1.877a.295.295 0 0 0 0 .59H6.94a.295.295 0 0 0 .295-.295zM4.777 8.728h-2.9a.295.295 0 0 0 0 .59h2.9a.295.295 0 0 0 0-.59zm-.974 1.488H1.876a.295.295 0 1 0 0 .59h1.928a.295.295 0 0 0-.001-.59zm5.572 4.001a.29.29 0 0 0 .207-.086l1.485-1.483a.296.296 0 0 0-.21-.504c-.074 0-.15.029-.208.086l-.979.98v-2.86a.296.296 0 1 0-.59 0v2.86l-.98-.979a.295.295 0 1 0-.417.417l1.482 1.482a.296.296 0 0 0 .21.087zM10.39 8.15V3.089a.29.29 0 0 0-.086-.208L7.534.087A.294.294 0 0 0 7.326 0H.295A.295.295 0 0 0 0 .295v13.52c0 .163.132.296.295.296h5.47a4.12 4.12 0 0 0 3.61 2.141 4.122 4.122 0 0 0 4.118-4.117A4.121 4.121 0 0 0 10.39 8.15zm-4.887 5.37H.59V.59h6.44v2.5c0 .162.132.295.295.295H9.8V8.04a4.122 4.122 0 0 0-4.542 4.095c0 .487.09.952.245 1.385zm3.872-4.912a3.532 3.532 0 0 1 3.527 3.527 3.532 3.532 0 0 1-3.527 3.527 3.532 3.532 0 0 1-3.527-3.527 3.531 3.531 0 0 1 3.527-3.527z" fill="#56A9FF" fill-rule="nonzero"/>
</svg>
