<svg xmlns="http://www.w3.org/2000/svg" width="16" height="16" viewBox="0 0 16 16">
    <g fill="none" fill-rule="evenodd">
        <g fill="#56A9FF" fill-rule="nonzero">
            <g>
                <g>
                    <g>
                        <g>
                            <g>
                                <g>
                                    <path d="M15.418 7.726c-.316 0-.572.256-.572.571v5.532c0 .272-.108.534-.3.727-.193.193-.455.301-.727.301H2.169c-.272 0-.533-.108-.726-.301-.193-.193-.301-.455-.301-.727V2.17c0-.568.46-1.028 1.028-1.028H7.97c.316 0 .571-.256.571-.572 0-.315-.255-.571-.57-.571H2.17C.97 0 0 .972 0 2.171V13.83C0 15.028.971 16 2.17 16h11.649c1.198 0 2.17-.972 2.17-2.171V8.297c0-.315-.256-.571-.571-.571z" transform="translate(-1471 -642) translate(24 541) translate(721 15) translate(0 38) translate(14 40) translate(712 8)"/>
                                    <path d="M5.14 8v2.286c0 .315.255.571.57.571h2.284c.152 0 .297-.06.404-.167l7.423-7.429c.223-.223.223-.585 0-.808L13.537.167c-.223-.223-.584-.223-.807 0L5.306 7.596c-.107.107-.167.252-.167.404zm7.993-6.62l1.477 1.477-.906.906-1.476-1.477.905-.907zM6.281 8.236l5.14-5.143 1.476 1.477-5.14 5.143H6.282V8.237z" transform="translate(-1471 -642) translate(24 541) translate(721 15) translate(0 38) translate(14 40) translate(712 8)"/>
                                </g>
                            </g>
                        </g>
                    </g>
                </g>
            </g>
        </g>
    </g>
</svg>
