<svg xmlns="http://www.w3.org/2000/svg" width="12" height="12" viewBox="0 0 12 12">
    <g fill="none" fill-rule="evenodd">
        <g fill="#56A9FF" fill-rule="nonzero">
            <g>
                <g>
                    <g>
                        <g>
                            <path d="M4.125 4.575c.15.15.375.15.45 0L5.4 3.75c.15-.15.15-.375 0-.45-.15-.075-.375-.15-.45 0l-.3.225v-1.5c0-.15-.15-.3-.3-.3s-.3.15-.3.3v1.5l-.3-.225c-.15-.15-.375-.15-.45 0-.075.15-.15.3 0 .45l.825.825zM8.325 9c.15 0 .3-.15.3-.3V7.2l.3.3c.15.15.375.15.45 0 .15-.15.15-.375 0-.45l-.825-.825C8.4 6 8.25 6 8.1 6.075l-.825.825c-.15.15-.15.375 0 .45.15.15.375.15.45 0l.3-.3v1.5c0 .3.15.45.3.45z" transform="translate(-1344 -419) translate(24 348) translate(16 68) translate(1304 1) translate(0 2)"/>
                            <path d="M11.325 10.65H1.35V7.725h1.275L3.75 9.15c.15.15.3.225.525.225.225 0 .45-.075.525-.3L8.25 4.5l1.875.675c.075 0 .15.075.225.075.3 0 .525-.15.675-.45.15-.375-.075-.75-.45-.9L8.25 3h-.225c-.225 0-.45.075-.525.3L4.35 7.5l-.75-.975c-.15-.15-.375-.225-.6-.225H1.35V.675C1.35.3 1.05 0 .675 0 .3 0 0 .3 0 .675v10.65C0 11.7.3 12 .675 12h10.65c.375 0 .675-.3.675-.675 0-.375-.3-.675-.675-.675z" transform="translate(-1344 -419) translate(24 348) translate(16 68) translate(1304 1) translate(0 2)"/>
                        </g>
                    </g>
                </g>
            </g>
        </g>
    </g>
</svg>
