<svg width="17" height="13" viewBox="0 0 17 13" xmlns="http://www.w3.org/2000/svg">
    <g fill="#56A9FF" fill-rule="nonzero">
        <path d="M14.8 2.338 9.172 6.191a.763.763 0 0 1-.854 0L2.682 2.338a2.07 2.07 0 0 0-.04.408v6.543c0 .463.159.907.443 1.234.285.328.67.512 1.072.512h9.168c.837 0 1.516-.782 1.516-1.746V2.746a2.07 2.07 0 0 0-.04-.408z"/>
        <path d="m8.88 5.636 5.682-3.893C14.28 1.278 13.818 1 13.325 1H4.157c-.492.001-.954.278-1.237.743l5.688 3.893a.252.252 0 0 0 .273 0z"/>
    </g>
</svg>
