<svg xmlns="http://www.w3.org/2000/svg" width="13" height="12" viewBox="0 0 13 12">
    <g fill="none" fill-rule="evenodd">
        <g fill="#56A9FF" fill-rule="nonzero">
            <g>
                <g>
                    <g>
                        <g>
                            <path d="M10.563 6.746c.233-.233.64-.233.873 0l.59.59c.24.24.24.632 0 .873L8.84 11.393l-1.609.439-.108.107c-.04.04-.093.061-.146.061-.052 0-.104-.02-.144-.06l-.004.001c-.079-.085-.078-.214.002-.294l.107-.108.44-1.61zm-2.894 3.69l-.25.916.916-.25-.666-.666zm2.306-2.517l-2.119 2.119.878.877 2.119-2.118-.878-.878zm1.169-.88c-.077-.078-.212-.078-.289 0l-.587.587.878.878.587-.587c.08-.08.08-.21 0-.289zM2.897 0c.115 0 .207.093.207.207v.62l4.552.001v-.62c0-.115.092-.207.207-.207H9.31c.114 0 .207.092.207.207v.62h1.034c.114 0 .207.093.207.207v1.862H0V1.033C.001.92.094.828.208.828h1.034V.207c0-.115.093-.207.207-.207zm-.206.414H1.656v1.241h1.035V.414zm6.413 0H8.069v1.242h1.035V.414zm1.02 5.893c.176-.176.396-.292.634-.339v-2.45c0-.115-.092-.207-.206-.207L.208 3.31c-.114 0-.207.092-.207.207L0 11.585c0 .115.093.207.207.207h6.02l.596-2.184 3.301-3.3zM7.655 4.552H9.31v1.655H7.656V4.552zm-4.552 5.792H1.448V8.69h1.656v1.655zm0-2.069H1.45V6.62h1.655v1.655zm0-2.068H1.45V4.55h1.655v1.656zm2.07 4.138H3.516V8.688h1.655v1.656zm0-2.07H3.516V6.62h1.656v1.656zm0-2.068H3.516V4.552h1.656v1.655zm.413 0V4.552H7.242v1.655H5.585z" transform="translate(-41 -452) translate(24 348) translate(16 68) translate(1 33) translate(0 3)"/>
                        </g>
                    </g>
                </g>
            </g>
        </g>
    </g>
</svg>
