<svg width="11" height="12" viewBox="0 0 11 12" xmlns="http://www.w3.org/2000/svg">
    <g fill="#56A9FF" fill-rule="nonzero">
        <path d="M9.809.934H7.195v.874a.769.769 0 0 1-.768.769H5.129a.769.769 0 0 1-.769-.769V.934H1.744A.744.744 0 0 0 1 1.678v9.513c0 .41.333.743.744.743h8.063c.41 0 .744-.333.744-.743V1.678A.742.742 0 0 0 9.81.934zM5.666 4.205c.802 0 1.455.652 1.455 1.455a1.455 1.455 0 1 1-1.454-1.454zM8.194 9.94c0 .121-.098.219-.218.219H3.357a.218.218 0 0 1-.218-.219V8.85c0-.407.158-.79.446-1.076.287-.287.67-.446 1.076-.446h.027l.023.014a1.938 1.938 0 0 0 1.913 0l.023-.014h.028c.406 0 .787.16 1.076.446.286.287.446.67.446 1.076v1.09h-.003z"/>
        <path d="M6.425 0H5.127a.22.22 0 0 0-.22.22v1.588a.222.222 0 0 0 .22.22h1.298a.217.217 0 0 0 .151-.06.216.216 0 0 0 .069-.16V.22a.218.218 0 0 0-.22-.22zm-.649 1.13a.275.275 0 0 1-.274-.274c0-.15.123-.274.274-.274.151 0 .275.123.275.274 0 .151-.124.275-.275.275z"/>
    </g>
</svg>
