<svg xmlns="http://www.w3.org/2000/svg" width="12" height="12" viewBox="0 0 12 12">
    <g fill="none" fill-rule="evenodd">
        <g fill="#56A9FF" fill-rule="nonzero">
            <g>
                <g>
                    <g>
                        <g>
                            <g>
                                <path d="M11.255 6.96c-.153-.094-.289-.179-.427-.258-.74-.425-1.533-.506-2.363-.36-.66.135-1.309.328-1.935.578-.685.254-1.37.516-2.09.658-.656.147-1.34.11-1.976-.108-.311-.11-.604-.27-.866-.47-.026-.028-.044-.063-.052-.1-.004-.026-.004-.052 0-.078V1.098.944c.148.092.268.174.405.256.668.38 1.446.52 2.205.395.636-.108 1.259-.283 1.858-.522C6.812.783 7.598.46 8.437.31c.702-.12 1.4-.11 2.062.194.24.112.47.26.702.397.026.024.044.054.053.088.004.018.004.038 0 .056V6.956l.001.004zM.07.372C.057.418.05.466.05.514V.372h.02zM1.077.372v.142c0-.048-.007-.096-.02-.142h.02z" transform="translate(-576 -453) translate(24 348) translate(16 68) translate(536.354 34) translate(0 3)"/>
                                <path d="M1.077.514V12H.05V.514C.05.33.148.16.307.069c.159-.092.354-.092.513 0 .16.092.257.261.257.445z" transform="translate(-576 -453) translate(24 348) translate(16 68) translate(536.354 34) translate(0 3)"/>
                            </g>
                        </g>
                    </g>
                </g>
            </g>
        </g>
    </g>
</svg>
