<svg xmlns="http://www.w3.org/2000/svg" xmlns:xlink="http://www.w3.org/1999/xlink" width="24" height="24" viewBox="0 0 24 24">
    <defs>
        <path id="e5hl40mwta" d="M7.982 7.082l-5.44 5.44c-.376.376-.984.376-1.356 0l-.904-.904c-.376-.376-.376-.984 0-1.356l3.856-3.856L.282 2.55c-.376-.376-.376-.984 0-1.356l.9-.912c.376-.376.984-.376 1.356 0l5.44 5.44c.38.376.38.984.004 1.36zm7.68-1.36l-5.44-5.44c-.376-.376-.984-.376-1.356 0l-.904.904c-.376.376-.376.984 0 1.356l3.856 3.856-3.856 3.856c-.376.376-.376.984 0 1.356l.904.904c.376.376.984.376 1.356 0l5.44-5.44c.376-.368.376-.976 0-1.352z"/>
    </defs>
    <g fill="none" fill-rule="evenodd">
        <g>
            <g>
                <g>
                    <g>
                        <g>
                            <g>
                                <g transform="translate(-660 -555) translate(-3 320) translate(24 220) translate(24 15) translate(378) translate(237) translate(5.03 5.598)">
                                    <use fill="#4A4A4A" xlink:href="#e5hl40mwta"/>
                                </g>
                            </g>
                        </g>
                    </g>
                </g>
            </g>
        </g>
    </g>
</svg>
