<svg xmlns="http://www.w3.org/2000/svg" xmlns:xlink="http://www.w3.org/1999/xlink" width="13" height="13" viewBox="0 0 13 13">
    <defs>
        <path id="azqy86uiia" d="M0 0L12.5 0 12.5 12.5 0 12.5z"/>
    </defs>
    <g fill="none" fill-rule="evenodd">
        <g>
            <g>
                <g>
                    <g>
                        <g>
                            <path fill="#9B9B9B" d="M5.57 10.278c-.384 0-.687-.162-.875-.47-.407-.666-.036-1.88.322-3.055.08-.26.157-.515.223-.754l-.257-.003-.121-.106-.075-.086V5.64l.085-.632.244-.08 1.99-.263h.132l.168.134c.06.085.072.194.035.291l-.063.163C6.91 6.456 6.428 7.7 6.324 8.991c.28-.12.587-.41.867-.715l.074-.08.157-.022h.089l.11.072.426.354-.12.275c-.414.587-1.511 1.403-2.357 1.403M6.823 4.471c-.62 0-1.125-.505-1.125-1.125s.504-1.125 1.125-1.125c.62 0 1.125.504 1.125 1.125 0 .62-.505 1.125-1.125 1.125" transform="translate(-103 -644) translate(24 541) translate(24 53) translate(16 40) translate(39 10)"/>
                            <g transform="translate(-103 -644) translate(24 541) translate(24 53) translate(16 40) translate(39 10)">
                                <mask id="jxo51akrob" fill="#fff">
                                    <use xlink:href="#azqy86uiia"/>
                                </mask>
                                <path fill="#9B9B9B" d="M6.25 1.181c-2.795 0-5.068 2.274-5.068 5.069s2.273 5.068 5.068 5.068c2.795 0 5.068-2.273 5.068-5.068 0-2.795-2.273-5.069-5.068-5.069m0 11.319C2.804 12.5 0 9.696 0 6.25S2.804 0 6.25 0s6.25 2.804 6.25 6.25-2.804 6.25-6.25 6.25" mask="url(#jxo51akrob)"/>
                            </g>
                        </g>
                    </g>
                </g>
            </g>
        </g>
    </g>
</svg>
