<svg xmlns="http://www.w3.org/2000/svg" width="14" height="13" viewBox="0 0 14 13">
    <g fill="none" fill-rule="evenodd">
        <g fill="#56A9FF">
            <g>
                <g>
                    <g>
                        <g>
                            <path d="M7.805 0C8.599.169 9.342.473 10 .895c-1.3 1.977-.017 3.244 1.943 1.96.422.659.743 1.402.912 2.196-2.298.473-2.298 2.28 0 2.754-.169.794-.49 1.537-.912 2.196-1.96-1.3-3.244-.017-1.943 1.943-.659.422-1.402.743-2.196.912-.473-2.298-2.28-2.298-2.754 0-.794-.169-1.537-.49-2.196-.912C4.139 9.984 2.872 8.7.895 10 .473 9.342.17 8.599 0 7.805c2.298-.473 2.298-2.28 0-2.754.169-.794.473-1.537.895-2.196 1.977 1.284 3.244.017 1.96-1.96C3.514.473 4.257.17 5.051 0c.473 2.298 2.28 2.298 2.754 0zM6.42 2.53c-3.523 0-5.205 4.32-2.705 6.706 1.478 1.409 3.819 1.454 5.319.09 2.636-2.363 1-6.795-2.614-6.795z" transform="translate(-576 -486) translate(24 348) translate(16 68) translate(536.613 68) translate(0 2)"/>
                            <path fill-rule="nonzero" d="M6.705 3.869V3h-.848v.869c-.716.104-1.27.716-1.27 1.46 0 .818.665 1.484 1.482 1.484h.424c.35 0 .635.285.635.635 0 .35-.285.635-.635.635h-.424c-.35 0-.635-.285-.635-.635v-.212h-.847v.212c0 .745.554 1.357 1.27 1.461v.869h.848v-.869c.716-.104 1.27-.716 1.27-1.461 0-.818-.665-1.483-1.482-1.483h-.424c-.35 0-.635-.285-.635-.635 0-.35.285-.636.635-.636h.424c.35 0 .635.286.635.636v.212h.847V5.33c0-.745-.554-1.357-1.27-1.461z" transform="translate(-576 -486) translate(24 348) translate(16 68) translate(536.613 68) translate(0 2)"/>
                        </g>
                    </g>
                </g>
            </g>
        </g>
    </g>
</svg>
