<svg xmlns="http://www.w3.org/2000/svg" width="24" height="20" viewBox="0 0 24 20">
    <g fill="none" fill-rule="evenodd">
        <g fill="#B7B7B7">
            <g>
                <g>
                    <g>
                        <g>
                            <path d="M11.973 10.623l-8.16 8.16c-.564.564-1.476.564-2.034 0L.423 17.427c-.564-.564-.564-1.476 0-2.034l5.784-5.784L.423 3.825c-.564-.564-.564-1.476 0-2.034L1.773.423c.564-.564 1.476-.564 2.034 0l8.16 8.16c.57.564.57 1.476.006 2.04zm11.52-2.04l-8.16-8.16c-.564-.564-1.476-.564-2.034 0l-1.356 1.356c-.564.564-.564 1.476 0 2.034l5.784 5.784-5.784 5.784c-.564.564-.564 1.476 0 2.034l1.356 1.356c.564.564 1.476.564 2.034 0l8.16-8.16c.564-.552.564-1.464 0-2.028z" transform="translate(-520 -1182) translate(443 296) translate(77 884) translate(0 2.397) matrix(-1 0 0 1 23.916 0)"/>
                        </g>
                    </g>
                </g>
            </g>
        </g>
    </g>
</svg>
