<svg xmlns="http://www.w3.org/2000/svg" width="24" height="24" viewBox="0 0 24 24">
    <g fill="none" fill-rule="evenodd">
        <g>
            <g>
                <g>
                    <path d="M0 0H24V24H0z" transform="translate(-1336 -407) translate(300 337) translate(1036 70)"/>
                    <path fill="#B7B7B7" d="M14.843 7.087C13.143 7.087 11.737 6 9.598 6c-.792 0-1.502.137-2.16.375.091-.234.13-.485.114-.736-.056-.889-.796-1.601-1.7-1.638C4.836 3.961 4 4.76 4 5.75c0 .595.301 1.12.762 1.436V19.25c0 .414.341.75.762.75h.508c.42 0 .762-.336.762-.75V16.3c.898-.377 2.018-.691 3.633-.691 1.7 0 3.106 1.087 5.244 1.087 1.53 0 2.752-.51 3.89-1.277.275-.186.439-.495.439-.824V6.998c0-.73-.77-1.214-1.444-.906-1.09.498-2.427.995-3.713.995z" transform="translate(-1336 -407) translate(300 337) translate(1036 70)"/>
                </g>
            </g>
        </g>
    </g>
</svg>
