<svg width="24" height="24" viewBox="0 0 24 24" xmlns="http://www.w3.org/2000/svg">
    <g fill="none" fill-rule="evenodd">
        <path d="M0 0h24v24H0z"/>
        <g fill="#56A9FF" fill-rule="nonzero">
            <path d="m18.156 8.448-6.09 4.169a.825.825 0 0 1-.925 0l-6.097-4.17A2.24 2.24 0 0 0 5 8.89v7.079c0 .501.173.982.48 1.336a1.54 1.54 0 0 0 1.16.553h9.92c.905 0 1.64-.846 1.64-1.889V8.889a2.24 2.24 0 0 0-.044-.441z"/>
            <path d="m11.75 12.016 6.148-4.213c-.306-.502-.805-.802-1.339-.803H6.641c-.534.001-1.033.301-1.34.803l6.154 4.213a.273.273 0 0 0 .296 0z"/>
        </g>
    </g>
</svg>
