<svg xmlns="http://www.w3.org/2000/svg" width="17" height="21" viewBox="0 0 17 21">
    <g fill="none" fill-rule="evenodd">
        <g fill="#FFF" fill-rule="nonzero">
            <g>
                <g>
                    <g>
                        <path d="M16.887 17.153l-1.456-2.425c-.67-1.12-1.026-2.4-1.026-3.706V8.897c0-3.27-2.661-5.931-5.931-5.931S2.542 5.627 2.542 8.897v2.125c0 1.305-.355 2.586-1.026 3.706L.061 17.153c-.08.13-.081.294-.006.426.075.133.217.215.369.215h16.1c.152 0 .294-.082.37-.215.074-.132.072-.296-.007-.426zm-15.715-.206l1.07-1.784c.751-1.25 1.148-2.682 1.148-4.141V8.897c0-2.804 2.28-5.084 5.084-5.084s5.084 2.28 5.084 5.084v2.125c0 1.459.397 2.89 1.146 4.141l1.072 1.784H1.172z" transform="translate(-1562 -225) translate(0 212) translate(1465 .51) translate(97.026 12.49)"/>
                        <path d="M8.474 0c-.935 0-1.695.76-1.695 1.695v1.694c0 .234.19.424.424.424.234 0 .424-.19.424-.424V1.695c0-.468.38-.848.847-.848.468 0 .847.38.847.848v1.694c0 .234.19.424.424.424.234 0 .424-.19.424-.424V1.695C10.169.76 9.409 0 8.474 0zM10.308 17.156c-.12-.201-.378-.267-.58-.151-.203.118-.271.378-.153.58.11.187.17.412.17.633 0 .7-.57 1.271-1.27 1.271-.701 0-1.271-.57-1.271-1.271 0-.221.06-.446.17-.633.118-.202.05-.462-.152-.58-.204-.116-.461-.05-.58.151-.187.32-.287.688-.287 1.062 0 1.169.95 2.118 2.119 2.118.506 0 .97-.178 1.336-.475.477-.388.783-.98.784-1.643 0-.374-.1-.741-.286-1.062z" transform="translate(-1562 -225) translate(0 212) translate(1465 .51) translate(97.026 12.49)"/>
                    </g>
                </g>
            </g>
        </g>
    </g>
</svg>
