<svg xmlns="http://www.w3.org/2000/svg" width="12" height="12" viewBox="0 0 12 12">
    <g fill="none" fill-rule="evenodd">
        <g fill="#56A9FF" fill-rule="nonzero">
            <g>
                <g>
                    <g>
                        <g>
                            <g transform="translate(-1343 -453) translate(24 348) translate(16 68) translate(1303 34) translate(0 3)">
                                <path d="M9.804 9.58v.075s.075.075.15.075v-.45c-.075.075-.15.15-.15.3zM10.179 10.179v.449c.15 0 .299-.075.299-.15s0-.075-.075-.15c-.075-.15-.15-.15-.224-.15z"/>
                                <path d="M10.703 8.308c-.075-.075-.225-.075-.3-.075h-.3c-1.047 0-1.87.823-1.87 1.87v.3c0 .075 0 .15.075.225.224.748.973 1.272 1.796 1.272 1.048 0 1.87-.823 1.87-1.871 0-.823-.523-1.497-1.271-1.721zm.074 2.32c0 .075-.074.15-.15.15-.074.074-.149.074-.224.074h-.224v.3h-.15v-.3c-.15 0-.225 0-.374-.075-.15-.074-.225-.074-.3-.15l.15-.299.075.075c.075.075.075.075.15.075.074 0 .074.075.15.075h.149v-.45h-.15c-.075 0-.15-.074-.224-.074-.075 0-.15-.075-.15-.075s-.075-.075-.075-.15v-.15-.074c0-.075 0-.15.075-.225 0-.074.075-.15.15-.15.075-.074.15-.074.15-.149.074 0 .15 0 .224-.075v-.3h.15v.3h.15c.074 0 .149 0 .224.075.075 0 .15.075.224.15l-.15.299-.074-.075s-.075 0-.075-.075c0 0-.075 0-.15-.074-.075-.075-.075 0-.15 0v.449h.075c.075 0 .15.074.225.074.075 0 .15.075.15.075l.15.15c0 .075.074.15.074.224-.075.225-.075.3-.075.375zM6.062 5.688l.075-2.17c0-.225-.224-.45-.449-.45-.3 0-.449.15-.449.375l-.075 2.544.524.6L7.26 8.232c.075.075.224.15.374.15.075 0 .224 0 .3-.15.149-.15.224-.45 0-.599L6.061 5.688z"/>
                                <path d="M7.784 10.253l-.075-.374-.374.15c-.524.224-1.048.3-1.572.3-2.545 0-4.566-2.096-4.566-4.566 0-2.545 2.021-4.64 4.566-4.64 1.048 0 2.02.299 2.77.973L7.11 3.368h3.293V.075L9.206 1.272C8.233.45 6.96 0 5.688 0 2.545 0 0 2.545 0 5.688s2.545 5.688 5.688 5.688c.674 0 1.272-.15 1.946-.3l.374-.149-.15-.374c-.074-.075-.074-.15-.074-.3z"/>
                                <circle cx="10.852" cy="4.94" r="1"/>
                                <circle cx="10.703" cy="6.886" r="1"/>
                            </g>
                        </g>
                    </g>
                </g>
            </g>
        </g>
    </g>
</svg>
