<svg xmlns="http://www.w3.org/2000/svg" width="14" height="12" viewBox="0 0 14 12">
    <g fill="none" fill-rule="evenodd">
        <g fill="#56A9FF" fill-rule="nonzero">
            <g>
                <g>
                    <g>
                        <g>
                            <path d="M11.26 0c1.023 0 1.023 1.023 1.023 1.023v.809h-3.03c-.017 0-.034 0-.05.002h-.717c-.98 0-1.778.797-1.778 1.777v1.535c0 .98.798 1.777 1.778 1.777h3.797v3.14c-.004.1-.057 1.014-1.024 1.014H1.024C.459 11.077 0 10.618 0 10.053v-9.03C0 .46.459 0 1.024 0zM3.77 2.314h-.783v.802c-.661.096-1.173.661-1.173 1.349 0 .754.614 1.368 1.369 1.368h.39c.324 0 .587.263.587.587 0 .323-.263.586-.586.586h-.391c-.324 0-.587-.263-.587-.586v-.196h-.782v.196c0 .687.512 1.253 1.173 1.349v.802h.782v-.802c.662-.096 1.173-.662 1.173-1.35 0-.754-.614-1.368-1.368-1.368h-.391c-.324 0-.587-.263-.587-.586 0-.324.263-.587.587-.587h.39c.324 0 .587.263.587.587v.195h.782v-.195c0-.688-.511-1.253-1.173-1.349v-.802z" transform="translate(-945 -487) translate(24 348) translate(16 68) translate(905 69) translate(.693 2.692)"/>
                            <path d="M12.73 2.587h-.002l-.013-.001H9.253l-.016.001h-.751c-.565 0-1.024.459-1.024 1.024v1.535c0 .565.459 1.024 1.024 1.024h4.244v-.002c.315-.011.317-.33.317-.33V2.917s-.002-.319-.317-.33zm-3.816 2.37c-.32 0-.58-.259-.58-.579 0-.32.26-.578.58-.578.319 0 .578.259.578.578 0 .32-.26.58-.578.58z" transform="translate(-945 -487) translate(24 348) translate(16 68) translate(905 69) translate(.693 2.692)"/>
                        </g>
                    </g>
                </g>
            </g>
        </g>
    </g>
</svg>
