<svg width="24" height="24" viewBox="0 0 24 24" xmlns="http://www.w3.org/2000/svg">
    <g fill="none" fill-rule="evenodd">
        <path d="M0 0h24v24H0z"/>
        <path d="M13.824 12.639a.199.199 0 0 1 .217-.019l.01.006c.608.325 2.033 1.086 2.441 1.367.598.412.896 1.572 1.04 2.472a.199.199 0 0 1-.008.098c-.025.07-.656 1.703-5.256 1.703-4.6 0-5.232-1.633-5.257-1.703a.199.199 0 0 1-.008-.098c.053-.331.354-2.01 1.042-2.473.407-.274 1.849-1.05 2.45-1.372a.199.199 0 0 1 .216.019c.319.25.668.419 1.038.501a.199.199 0 0 1 .142.124l.377.992.376-.992a.199.199 0 0 1 .143-.124c.37-.082.719-.25 1.037-.501zm1.59 2.792h-1.802v.485l.9.28.901-.28v-.485zM12.267 6c2.578 0 2.836 1.549 2.836 3.459 0 2.44-1.99 3.459-2.836 3.459-.847 0-2.836-1.019-2.836-3.46C9.432 7.549 9.69 6 12.268 6zm-.856 2.07c-.926-.019-1.357.426-1.556.812-.009.19-.012.384-.012.577 0 1.193.527 1.932.97 2.342.556.517 1.174.704 1.454.704s.898-.187 1.454-.704c.442-.41.969-1.15.969-2.342 0-.218-.004-.436-.014-.65-2.712.602-3.265-.738-3.265-.738z" fill="#56A9FF" fill-rule="nonzero"/>
    </g>
</svg>
