<svg xmlns="http://www.w3.org/2000/svg" width="17" height="10" viewBox="0 0 17 10">
    <g fill="none" fill-rule="evenodd">
        <g fill="#9B9B9B" fill-rule="nonzero">
            <g>
                <g>
                    <g>
                        <g>
                            <path d="M15.897 3.688h-1.63c-.227 0-.427.16-.478.372-.376-.08-.752-.212-1.078-.399l-.929-.478.853-.932.527-.638c.126-.133.176-.32.176-.479 0-.186-.075-.346-.2-.479l-.503-.479c-.25-.24-.677-.24-.903.027l-.527.612L9.9 2.25c-.602-.133-1.23 0-1.756.4L5.359 4.91c-.527.453-.577 1.278-.1 1.783.1.106.25.213.376.266-.025.027-.326.373-.301.346-.1.16.075-.213-.929 2.181-.05.08-.025.213.05.293.05.053.1.08.176.08.05 0 .075 0 .126-.027l1.932-1.037.025-.027c.025 0 .025-.026.05-.026l.878-.985c.05.133.126.24.226.346.1.106.2.186.326.24v.026c0 .506.402.931.878.931.251 0 .452-.106.628-.266.15.16.376.266.627.266.426 0 .778-.346.853-.771.05.026.1.026.15.026.603.213 1.305.266 1.907.053.176-.08.377-.106.552-.133.026.293.251.506.527.506h1.631c.276 0 .527-.24.527-.559V4.247c-.05-.293-.276-.559-.577-.559zM9.323 5.071L8.27 6.241c-.35.107-.602.4-.677.772L6.563 8.157l-.175-.16 5.52-6.118.175.16-2.76 3.032zm.251.48c.276.106.477.345.552.638H8.997l.577-.639zM5.861 7.465l.451-.532 4.943-5.427.126-.133.175.16-2.082 2.314c-.05.026-.076.053-.1.106L6.035 7.625l-.175-.16zM12.083.549c.05-.053.126-.107.201 0l.502.479c.025.026.05.08.05.106 0 .053 0 .08-.025.106l-.351.4-.603-.612-.1-.08.326-.4zM5.66 5.337l2.785-2.26c.301-.24.652-.347 1.004-.347L6.112 6.401l-.1.107c-.578-.027-.804-.798-.352-1.17zm-.075 2.58c.05.054.577.586.552.533l-1.004.532.452-1.064zm3.462.799c-.175 0-.326-.133-.376-.32h.727c0 .187-.175.32-.35.32zm1.255 0c-.176 0-.326-.133-.352-.32h.728c-.05.187-.2.32-.376.32zm2.735-.639c-.602.213-1.255.054-1.581-.053-.25-.08-.627-.16-.903-.16H8.596c-.151 0-.276-.053-.377-.159-.1-.106-.15-.266-.15-.4V7.2c.05-.24.2-.4.401-.453.05 0 .075-.026.126-.026h1.831c.15 0 .251-.107.251-.266 0-.559-.301-1.038-.728-1.304l1.456-1.596 1.054.559c.401.212.828.372 1.28.478v3.3c-.227.026-.477.079-.703.185zm2.885.293c0 .027 0 .027 0 0l-1.656.027s-.025 0-.025-.027V4.247s0-.027.025-.027h1.631s.025 0 .025.027V8.37z" transform="translate(-100 -1101) translate(24 541) translate(24 509) translate(16 40) translate(36.5 11)"/>
                            <g>
                                <path d="M3.865 5.875c-.625 0-1.067-.189-1.353-.41-.625-.442-1.363-1.743-1.12-3.258.033-.292.105-.379.261-.41.156-.032.312.126.338.315-.182.98.39 2.405.833 2.753.599.442 1.431.41 2.472-.032.156-.063.313.032.39.221.053.19-.025.38-.181.474-.651.253-1.198.347-1.64.347z" transform="translate(-100 -1101) translate(24 541) translate(24 509) translate(16 40) translate(36.5 11) translate(0 4.101)"/>
                                <path d="M1.315 3.602c-.365 0-.729-.064-1.093-.19-.156-.063-.26-.253-.208-.442.052-.19.208-.316.364-.253 1.119.38 2.316-.031 2.888-.6.183-.19.365-.442.339-.79-.026-.347-.339-.63-.65-.6-.573.032-.86.79-.964 1.422-.026.19-.182.316-.338.284-.156-.032-.26-.221-.234-.41C1.6.853 2.199.063 2.929 0 3.552-.03 4.15.538 4.202 1.233c.052.505-.156 1.01-.546 1.421-.573.6-1.457.948-2.342.948z" transform="translate(-100 -1101) translate(24 541) translate(24 509) translate(16 40) translate(36.5 11) translate(0 4.101)"/>
                            </g>
                        </g>
                    </g>
                </g>
            </g>
        </g>
    </g>
</svg>
