<svg xmlns="http://www.w3.org/2000/svg" width="13" height="12" viewBox="0 0 13 12">
    <g fill="none" fill-rule="evenodd">
        <g fill="#56A9FF" fill-rule="nonzero">
            <g>
                <g>
                    <g>
                        <g>
                            <path d="M11.432 3.425c-.198-.421-.449-.813-.74-1.175l.743.138c.125.024.246-.06.27-.184.023-.126-.06-.246-.186-.27l-1.376-.256c-.065-.013-.132.004-.184.044-.053.04-.085.101-.09.167l-.092 1.4c-.009.128.087.238.215.246h.015c.12 0 .222-.093.23-.215l.056-.832c.286.348.53.727.722 1.135 1.002 2.111.564 4.642-1.089 6.298-1.731 1.729-4.438 2.117-6.582.945-.112-.062-.253-.02-.314.092s-.02.252.092.313c.897.49 1.885.729 2.867.729 1.563 0 3.112-.603 4.264-1.752 1.791-1.794 2.265-4.536 1.18-6.823z" transform="translate(-946 -455) translate(24 348) translate(16 68) translate(906 36) translate(0 3)"/>
                            <path d="M10.394 6c0-2.421-1.968-4.39-4.39-4.39-2.42 0-4.388 1.969-4.388 4.39 0 2.421 1.968 4.39 4.389 4.39 2.42 0 4.39-1.969 4.39-4.39zM4.951 4.173c.238-.234.53-.347.823-.386v-.79c0-.127.104-.231.23-.231.128 0 .232.104.232.23v.777c.513.035.94.22.972.233.118.051.171.185.12.303-.048.118-.184.171-.302.12-.007-.002-.504-.212-1.007-.2l-.014.001h-.01c-.26.007-.526.079-.72.27-.162.16-.229.37-.178.567.08.31.425.561.968.711.959.261 1.222.765 1.294 1.04.092.358-.019.734-.3 1.01-.239.235-.53.346-.823.387v.788c0 .127-.104.231-.231.231s-.231-.104-.231-.23v-.777c-.513-.037-.943-.22-.973-.233-.117-.049-.17-.185-.12-.303.049-.118.185-.171.303-.12.007.002.503.212 1.007.2l.014-.001h.01c.26-.007.526-.079.72-.27.162-.16.229-.37.178-.567-.081-.31-.425-.561-.968-.711-.959-.261-1.222-.765-1.294-1.04-.092-.358.019-.734.3-1.01z" transform="translate(-946 -455) translate(24 348) translate(16 68) translate(906 36) translate(0 3)"/>
                            <path d="M2.018 8.465c-.125-.006-.237.088-.246.215l-.055.832c-.286-.348-.53-.727-.722-1.135C-.007 6.266.43 3.735 2.084 2.08 3.815.35 6.522-.038 8.666 1.134c.112.061.252.02.314-.091C9.04.93 9 .79 8.888.729c-2.323-1.27-5.255-.85-7.13 1.023C-.035 3.546-.509 6.288.577 8.575c.198.42.448.813.74 1.175l-.743-.138c-.125-.023-.246.06-.27.184-.023.126.06.247.185.27l1.377.257c.014.002.028.004.043.004.05 0 .1-.017.141-.049.052-.04.085-.101.089-.167l.093-1.4c.009-.128-.087-.238-.215-.246z" transform="translate(-946 -455) translate(24 348) translate(16 68) translate(906 36) translate(0 3)"/>
                        </g>
                    </g>
                </g>
            </g>
        </g>
    </g>
</svg>
