<svg width="24" height="24" viewBox="0 0 24 24" xmlns="http://www.w3.org/2000/svg">
    <g fill="none" fill-rule="evenodd">
        <path d="M0 0h24v24H0z"/>
        <path d="m18.851 9.734-3.585-3.585a.505.505 0 0 0-.834.182 3.334 3.334 0 0 0-.144 1.757l-3.49 3.074c-1.892-.672-3.381.367-3.446.414a.506.506 0 0 0-.064.77l2.46 2.46-3.656 3.657a.314.314 0 0 0 .445.445l3.657-3.657 2.46 2.46a.506.506 0 0 0 .772-.064c.052-.074.323-.476.496-1.102a3.873 3.873 0 0 0-.084-2.342l3.074-3.49c.59.11 1.207.06 1.758-.146a.504.504 0 0 0 .182-.834z" fill="#B7B7B7" fill-rule="nonzero"/>
    </g>
</svg>
