<svg xmlns="http://www.w3.org/2000/svg" width="24" height="20" viewBox="0 0 24 20">
    <g fill="none" fill-rule="evenodd">
        <g fill="#2069C1">
            <g>
                <g>
                    <g>
                        <g>
                            <path d="M11.973 11.02l-8.16 8.16c-.564.564-1.476.564-2.034 0L.423 17.824c-.564-.564-.564-1.476 0-2.034l5.784-5.784L.423 4.222c-.564-.564-.564-1.476 0-2.034L1.773.82c.564-.564 1.476-.564 2.034 0l8.16 8.16c.57.564.57 1.476.006 2.04zm11.52-2.04L15.333.82c-.564-.564-1.476-.564-2.034 0l-1.356 1.356c-.564.564-.564 1.476 0 2.034l5.784 5.784-5.784 5.784c-.564.564-.564 1.476 0 2.034l1.356 1.356c.564.564 1.476.564 2.034 0l8.16-8.16c.564-.552.564-1.464 0-2.028z" transform="translate(-1135 -1182) translate(443 296) translate(77 884) translate(564) translate(51 2)"/>
                        </g>
                    </g>
                </g>
            </g>
        </g>
    </g>
</svg>
