<svg xmlns="http://www.w3.org/2000/svg" width="21" height="18" viewBox="0 0 21 18">
    <g fill="none" fill-rule="evenodd">
        <g fill="#D0021B" fill-rule="nonzero">
            <g>
                <g>
                    <g>
                        <g>
                            <g>
                                <path d="M8.053 1.895c1.261 0 2.456.291 3.52.81-.132.448-.203.921-.205 1.41-.978-.559-2.11-.878-3.315-.878-3.7 0-6.71 3.01-6.71 6.71s3.01 6.71 6.71 6.71 6.71-3.01 6.71-6.71c0-.357-.028-.708-.082-1.05.437.164.904.268 1.39.303.023.246.034.495.034.747 0 4.44-3.612 8.053-8.052 8.053C3.613 18 0 14.388 0 9.947c0-4.44 3.612-8.052 8.053-8.052zm3.158 4.894c.263.262.262.686 0 .949l-2.21 2.21 2.21 2.21c.262.261.262.686 0 .948-.13.131-.302.197-.474.197s-.344-.066-.475-.197l-2.21-2.21-2.21 2.21c-.13.131-.302.197-.474.197-.171 0-.343-.066-.474-.197-.262-.262-.262-.687 0-.949l2.21-2.21-2.21-2.21c-.262-.262-.262-.686 0-.948.262-.263.687-.262.949 0l2.21 2.21 2.21-2.21c.262-.262.686-.262.948 0z" transform="translate(-632 -641) translate(24 541) translate(24 53) translate(16 40) translate(568 7)"/>
                                <path d="M16.45 0c1.095 0 2.147.435 2.922 1.21.775.776 1.21 1.827 1.21 2.923 0 2.283-1.85 4.134-4.133 4.134s-4.133-1.85-4.133-4.134c0-2.282 1.85-4.133 4.133-4.133zm.784 3.35l-1.425.229-.012.082c-.005.02-.008.04-.01.06.061-.002.121 0 .181.006.06.004.116.034.15.083.036.05.048.111.033.17-.004.034-.01.068-.018.102-.097.342-.194.693-.29 1.03-.096.337-.2.672-.283 1.012-.095.387.158.656.552.611.169-.02.328-.087.461-.193.253-.191.423-.448.589-.724l-.115-.07c-.082.112-.155.218-.237.317-.057.067-.122.127-.194.179-.036.02-.08.02-.116 0-.032-.03-.05-.071-.05-.115.005-.06.018-.12.04-.177l.622-2.173.023-.083.099-.345zm-.389-1.82c-.283 0-.513.23-.513.514-.002.136.052.268.147.365.096.098.227.153.364.154.285-.003.515-.234.516-.52 0-.283-.23-.513-.514-.513z" transform="translate(-632 -641) translate(24 541) translate(24 53) translate(16 40) translate(568 7)"/>
                            </g>
                        </g>
                    </g>
                </g>
            </g>
        </g>
    </g>
</svg>
