<svg xmlns="http://www.w3.org/2000/svg" width="24" height="24" viewBox="0 0 24 24">
    <g fill="none" fill-rule="evenodd">
        <g>
            <g>
                <g>
                    <path d="M0 0H24V24H0z" transform="translate(-1252 -407) translate(300 337) translate(952 70)"/>
                    <path fill="#B7B7B7" d="M7.786 10.384l4.89-4.221c.427-.37 1.102-.07 1.102.504v2.299C17.366 9.25 20 10.416 20 14.065c0 1.706-1.1 3.397-2.315 4.281-.38.276-.92-.07-.78-.517 1.07-3.422-.109-4.708-3.127-5.056v2.338c0 .575-.675.873-1.103.504l-4.889-4.222c-.307-.265-.308-.743 0-1.009zm-3.555 1.01l4.889 4.221c.427.37 1.102.07 1.102-.504v-.44l-3.017-2.605c-.342-.295-.539-.725-.538-1.177 0-.452.196-.882.538-1.177l3.017-2.606v-.439c0-.574-.674-.874-1.102-.504l-4.89 4.221c-.307.266-.307.744 0 1.01z" transform="translate(-1252 -407) translate(300 337) translate(952 70)"/>
                </g>
            </g>
        </g>
    </g>
</svg>
