<svg xmlns="http://www.w3.org/2000/svg" width="19" height="19" viewBox="0 0 19 19">
    <g fill="none" fill-rule="evenodd">
        <g fill="#D0021B" fill-rule="nonzero">
            <g>
                <g>
                    <g>
                        <g>
                            <g>
                                <g>
                                    <path d="M9 0C4.037 0 0 4.037 0 9s4.037 9 9 9 9-4.037 9-9-4.037-9-9-9zm0 16.5c-4.135 0-7.5-3.364-7.5-7.5S4.865 1.5 9 1.5s7.5 3.364 7.5 7.5-3.365 7.5-7.5 7.5zm3.53-9.97L10.06 9l2.47 2.47c.293.293.293.767 0 1.06-.146.147-.338.22-.53.22s-.384-.073-.53-.22L9 10.06l-2.47 2.47c-.146.147-.338.22-.53.22s-.384-.073-.53-.22c-.293-.293-.293-.767 0-1.06L7.94 9 5.47 6.53c-.293-.293-.293-.767 0-1.06.293-.293.767-.293 1.06 0L9 7.94l2.47-2.47c.293-.293.767-.293 1.06 0 .293.293.293.767 0 1.06z" transform="translate(-1419 -1262) translate(64 724) translate(23.907 16) translate(5.244 474) translate(0 35.42) translate(1325.85 12.58) translate(.238 .376)"/>
                                </g>
                            </g>
                        </g>
                    </g>
                </g>
            </g>
        </g>
    </g>
</svg>
