<svg xmlns="http://www.w3.org/2000/svg" width="18" height="24" viewBox="0 0 18 24">
    <g fill="none" fill-rule="evenodd">
        <g fill="#9B9B9B" fill-rule="nonzero">
            <g>
                <g>
                    <g transform="translate(-75 -288) translate(0 288) translate(75)">
                        <rect width="7.268" height="1" x="7.551" y="8.49" rx=".297"/>
                        <rect width="7.268" height="1" x="7.551" y="10.167" rx=".297"/>
                        <path d="M6.236 4.836h-1.92c-.232 0-.42.188-.42.42 0 .231.188.419.42.419h1.088l.832-.84zM4.315 6.513h.31v.838h-.31c-.231 0-.419-.187-.419-.419 0-.232.188-.42.42-.42zM4.315 8.19h.31v.839h-.31c-.231 0-.419-.188-.419-.42 0-.231.188-.419.42-.419zM4.316 9.866h.31v.84h-.31c-.232 0-.42-.188-.42-.42 0-.232.188-.42.42-.42zM4.316 11.545h.31v.84h-.31c-.232 0-.42-.188-.42-.42 0-.232.188-.42.42-.42zM5.956 14.88V6.931l2.171.09c.276.012.51-.202.521-.478.001-.033 0-.066-.006-.1L8.3 4.29H16.027c.276 0 .5.224.5.5v10.622l.584 1.083V4.655c0-.553-.448-1-1-1H8.717c-.267 0-.523.106-.71.295L5.549 6.429c-.186.187-.29.44-.29.704v7.182c.397.209.246.41.697.564z"/>
                        <path d="M.189 5.759s-.917 11.036 11.577 11.036v-3.092l6.128 4.85L11.879 24v-3.032S-1.75 22.82.189 5.758z"/>
                        <g>
                            <path d="M.5 0h2.842v1H.5C.224 1 0 .776 0 .5S.224 0 .5 0zM6.798 1c.26 0 .47-.21.47-.47V.5c0-.276-.224-.5-.5-.5H5.715l1.083 1z" transform="translate(7.551 13.52)"/>
                        </g>
                        <g>
                            <path d="M4.63 1h2.138c.276 0 .5-.224.5-.5s-.224-.5-.5-.5H3.547L4.63 1zM.5 0h2.842v1H.5C.224 1 0 .776 0 .5S.224 0 .5 0z" transform="translate(7.551 11.844)"/>
                        </g>
                        <path d="M2.254 11.222V3.382h2.241c.277 0 .5-.224.5-.5V.815H12.233c.276 0 .5.224.5.5V2.66c0 .2.162.361.362.361.2 0 .361-.162.361-.361V1c0-.552-.448-1-1-1H5.062c-.266 0-.522.107-.71.296l-2.458 2.48c-.186.187-.29.44-.29.703V9.9c.275.816.275.523.65 1.323z"/>
                    </g>
                </g>
            </g>
        </g>
    </g>
</svg>
