<svg xmlns="http://www.w3.org/2000/svg" width="23" height="22" viewBox="0 0 23 22">
    <g fill="none" fill-rule="evenodd">
        <g fill="#FFF" fill-rule="nonzero">
            <g>
                <g>
                    <g>
                        <path d="M20.933 15.618c-.176-.578-.493-1.103-.922-1.529-.683-.687-1.613-1.072-2.582-1.07-.495.001-.985.102-1.44.296l-3.592-3.591 4.769-4.733 1.13-.032c.136-.004.26-.078.33-.195l1.617-2.718c.094-.157.069-.357-.06-.487L18.786.162c-.13-.129-.33-.153-.487-.06L15.582 1.72c-.118.07-.192.194-.196.331l-.032 1.125-4.756 4.749L7.333 4.66C7.676 2.673 6.343.784 4.356.44c-.92-.159-1.868.041-2.645.56-.183.123-.23.371-.107.554.034.05.08.093.135.124l1.811 1.01c.4.227.48.905.156 1.48-.323.575-.942.87-1.345.646l-1.68-.91C.488 3.8.246 3.87.14 4.064c-.036.066-.053.142-.048.218.126 2.012 1.86 3.541 3.873 3.415.415-.026.824-.123 1.207-.287l2.969 2.97-1.285 1.284-.292-.287c-.322-.309-.83-.309-1.153 0l-.399.399c-.304.296-.323.778-.044 1.097l-4.72 4.713c-.32.305-.33.81-.025 1.128l.024.025 1.35 1.349c.304.318.81.33 1.128.025l.024-.025 4.725-4.72c.32.279.802.26 1.098-.045l.399-.399c.318-.304.33-.81.024-1.128l-.024-.025-.292-.291 1.277-1.305 3.871 3.87c-.334 1.99 1.007 3.872 2.995 4.207 1.178.198 2.378-.193 3.214-1.046.147-.164.132-.417-.032-.563-.043-.038-.093-.066-.147-.083l-2.247-.603c-.22-.07-.394-.24-.47-.459-.118-.3-.132-.632-.04-.942.167-.626.698-1.073 1.145-.953l2.222.598c.036.005.072.005.108 0 .22.003.401-.174.404-.394 0-.065-.015-.13-.045-.188zm-4.912-12c.072-.072.113-.17.115-.271l.032-1.066L18.431.937l.958.957-1.317 2.259-1.086.04c-.101.002-.199.044-.27.116l-4.87 4.864-.686-.686 4.86-4.869zM2.18 19.52L.814 18.16l4.745-4.733.686.686.654.679-4.716 4.728zm5.839-4.788l-.527-.531-.203-.203-1.676-1.688.399-.4 2.394 2.427-.387.395zm.076-1.82l-.687-.686 1.285-1.285.687.686-1.285 1.285zm10.343 1.92c-.118-.032-.24-.048-.363-.048-.87.07-1.588.708-1.76 1.564-.136.48-.11.993.076 1.456.17.447.542.787 1.001.918l1.485.4c-1.354.806-3.105.363-3.912-.991-.378-.636-.495-1.394-.326-2.114.03-.134-.01-.274-.108-.371L5.538 6.643c-.128-.12-.319-.143-.471-.056-.412.218-.871.331-1.337.331-1.2.001-2.273-.75-2.682-1.88l.91.508c.212.118.452.18.695.18.738-.043 1.4-.475 1.735-1.134.543-.97.332-2.123-.466-2.57L2.76 1.364c1.484-.53 3.117.243 3.647 1.727.184.515.216 1.072.092 1.605-.03.134.01.274.108.37l9.015 9.011c.123.124.312.153.467.072.412-.217.87-.33 1.336-.331 1.01 0 1.946.534 2.459 1.405l-1.445-.391z" transform="translate(-1490 -224) translate(0 212) translate(1465 .51) translate(25 11.49) translate(1 1)"/>
                    </g>
                </g>
            </g>
        </g>
    </g>
</svg>
