<svg xmlns="http://www.w3.org/2000/svg" width="24" height="26" viewBox="0 0 24 26">
    <g fill="none" fill-rule="evenodd">
        <g fill="#56A9FF" fill-rule="nonzero">
            <g>
                <g>
                    <path d="M2.454 8.292h8.678c.213 0 .386-.172.386-.385 0-.214-.173-.386-.386-.386H2.454c-.213 0-.386.172-.386.386 0 .213.173.385.386.385zm0-2.17h8.678c.213 0 .386-.173.386-.386 0-.213-.173-.386-.386-.386H2.454c-.213 0-.386.173-.386.386 0 .213.173.386.386.386zm7.007 3.73c0-.212-.173-.385-.386-.385H2.454c-.213 0-.386.173-.386.386 0 .213.173.385.386.385h6.621c.213 0 .386-.172.386-.385zm-3.214 1.561H2.454c-.213 0-.386.173-.386.386 0 .213.173.385.386.385h3.793c.213 0 .385-.172.385-.385 0-.213-.172-.386-.385-.386zm-1.274 1.946h-2.52c-.212 0-.385.172-.385.385 0 .213.173.386.386.386h2.52c.212 0 .385-.173.385-.386 0-.213-.173-.385-.386-.385zm7.56-.097c-.069-.07-.166-.114-.273-.114-.106 0-.202.042-.271.112h-.002l-1.94 1.94c-.15.151-.15.395 0 .546.076.075.175.113.274.113.098 0 .197-.038.273-.113l1.28-1.282v3.74c0 .214.173.387.386.387.213 0 .386-.173.386-.386v-3.74l1.28 1.28c.151.151.395.151.546 0 .15-.15.15-.394 0-.545l-1.938-1.938zm1.053-2.605V4.039c0-.102-.04-.2-.112-.271L9.853.114C9.78.041 9.683 0 9.579 0H.386C.173 0 0 .173 0 .386v17.68c0 .213.173.386.386.386h7.152c.916 1.667 2.689 2.8 4.722 2.8 2.969 0 5.384-2.415 5.384-5.383 0-2.51-1.73-4.619-4.058-5.212zm-6.39 7.023H.771V.771h8.422V4.04c0 .213.173.386.386.386h3.236v6.089c-.183-.02-.368-.029-.555-.029-2.969 0-5.384 2.415-5.384 5.384 0 .636.117 1.244.32 1.811zm5.064 2.801c-2.543 0-4.613-2.07-4.613-4.612 0-2.544 2.07-4.613 4.613-4.613 2.543 0 4.612 2.07 4.612 4.613 0 2.543-2.069 4.612-4.612 4.612z" transform="translate(-499 -557) translate(499 558) translate(3.178 2)"/>
                </g>
            </g>
        </g>
    </g>
</svg>
