<svg width="14" height="17" viewBox="0 0 14 17" xmlns="http://www.w3.org/2000/svg">
    <path d="M1.877 6.341h6.636a.295.295 0 1 0 0-.59H1.877a.295.295 0 1 0 0 .59zm0-1.66h6.636a.295.295 0 1 0 0-.59H1.877a.295.295 0 1 0 0 .59zm5.358 2.854a.295.295 0 0 0-.295-.295H1.877a.295.295 0 1 0 0 .59H6.94a.295.295 0 0 0 .295-.295zM4.777 8.728h-2.9a.295.295 0 1 0 0 .59h2.9a.295.295 0 1 0 0-.59zm-.974 1.488H1.877a.295.295 0 1 0 0 .59h1.926a.295.295 0 1 0 0-.59zm5.782-.074a.293.293 0 0 0-.417-.002l-.001.001-1.483 1.483a.295.295 0 1 0 .417.417l.98-.98v2.861a.295.295 0 0 0 .59 0v-2.86l.98.98a.295.295 0 1 0 .416-.418l-1.482-1.482zm.805-1.992V3.089a.294.294 0 0 0-.086-.208L7.534.087A.294.294 0 0 0 7.327 0H.295A.295.295 0 0 0 0 .295v13.52c0 .163.132.296.295.296h5.47a4.12 4.12 0 0 0 3.61 2.142 4.122 4.122 0 0 0 4.118-4.118A4.12 4.12 0 0 0 10.39 8.15zm-4.887 5.37H.59V.59h6.44v2.499c0 .163.133.295.295.295H9.8V8.04a4.122 4.122 0 0 0-4.542 4.095c0 .487.09.952.245 1.386zm3.873 2.143a3.531 3.531 0 0 1-3.528-3.528 3.531 3.531 0 0 1 3.528-3.527 3.531 3.531 0 0 1 3.527 3.527 3.531 3.531 0 0 1-3.527 3.528z" fill="#56A9FF" fill-rule="nonzero"/>
</svg>
