<svg xmlns="http://www.w3.org/2000/svg" width="21" height="18" viewBox="0 0 21 18">
    <g fill="none" fill-rule="evenodd">
        <g fill="#D0021B" fill-rule="nonzero">
            <g>
                <g>
                    <g>
                        <g>
                            <g>
                                <path d="M8 2c1.098 0 2.144.222 3.098.624-.15.476-.23.984-.23 1.51 0 .08.002.162.006.242-.861-.442-1.839-.692-2.874-.692-1.432 0-2.762.489-3.823 1.297l8.842 8.842c.808-1.06 1.297-2.391 1.297-3.823 0-.371-.032-.734-.094-1.088.539.196 1.12.302 1.727.302h.013c.025.259.038.52.038.786 0 4.413-3.587 8-8 8s-8-3.587-8-8 3.587-8 8-8zM2.981 6.177C2.173 7.237 1.684 8.568 1.684 10c0 3.486 2.83 6.316 6.316 6.316 1.432 0 2.762-.489 3.823-1.297z" transform="translate(-1420 -1124) translate(64 724) translate(23.907 16) translate(5.244 334) translate(0 35.42) translate(1327.35 14.58)"/>
                                <path d="M15.95 0c1.095 0 2.147.435 2.922 1.21.775.776 1.21 1.827 1.21 2.923 0 2.283-1.85 4.134-4.133 4.134s-4.133-1.85-4.133-4.134c0-2.282 1.85-4.133 4.133-4.133zm.784 3.35l-1.425.229-.012.082c-.005.02-.008.04-.01.06.061-.002.121 0 .181.006.06.004.116.034.15.083.036.05.048.111.033.17-.004.034-.01.068-.018.102-.097.342-.194.693-.29 1.03-.096.337-.2.672-.283 1.012-.095.387.158.656.552.611.169-.02.328-.087.461-.193.253-.191.423-.448.589-.724l-.115-.07c-.082.112-.155.218-.237.317-.057.067-.122.127-.194.179-.036.02-.08.02-.116 0-.032-.03-.05-.071-.05-.115.005-.06.018-.12.04-.177l.622-2.173.023-.083.099-.345zm-.389-1.82c-.283 0-.513.23-.513.514-.002.136.052.268.147.365.096.098.227.153.364.154.285-.003.515-.234.516-.52 0-.283-.23-.513-.514-.513z" transform="translate(-1420 -1124) translate(64 724) translate(23.907 16) translate(5.244 334) translate(0 35.42) translate(1327.35 14.58)"/>
                            </g>
                        </g>
                    </g>
                </g>
            </g>
        </g>
    </g>
</svg>
