<svg xmlns="http://www.w3.org/2000/svg" width="24" height="25" viewBox="0 0 24 25">
    <g fill="none" fill-rule="evenodd">
        <g fill="#B7B7B7" fill-rule="nonzero">
            <g>
                <g>
                    <g>
                        <path d="M3.245 3.755c0 .224.182.405.406.405h3.246c.224 0 .405-.181.405-.405 0-.224-.181-.406-.405-.406H3.65c-.224 0-.406.182-.406.406zM10.142 5.783H2.84c-.224 0-.406.182-.406.406 0 .224.182.405.406.405h7.302c.224 0 .406-.181.406-.405 0-.224-.182-.406-.406-.406zM9.33 8.217H2.84c-.224 0-.406.182-.406.406 0 .224.182.405.406.405h6.49c.225 0 .406-.181.406-.405 0-.224-.181-.406-.405-.406zM9.33 10.651H2.84c-.224 0-.406.182-.406.406 0 .224.182.406.406.406h6.49c.225 0 .406-.182.406-.406 0-.224-.181-.406-.405-.406zM9.33 13.085H2.84c-.224 0-.406.182-.406.406 0 .224.182.406.406.406h6.49c.225 0 .406-.182.406-.406 0-.224-.181-.406-.405-.406z" transform="translate(-503 -288) translate(0 288) translate(503)"/>
                        <path d="M23.412 10.769l-3.246-3.246c-.077-.074-.18-.116-.288-.117h-6.896V3.755c-.001-.108-.043-.211-.118-.288L9.62.22C9.54.146 9.439.104 9.33.104H.406C.182.104 0 .285 0 .509v16.227c0 .224.182.406.406.406h10.142v6.897c0 .224.181.405.405.405h12.17c.225 0 .406-.181.406-.405V11.057c0-.108-.043-.21-.117-.288zm-3.128-1.98l1.862 1.862h-1.862V8.79zM9.736 1.487l1.862 1.862H9.736V1.487zm.812 6.324v8.52H.81V.915h8.114v2.84c0 .224.182.405.406.405h2.84v3.246h-1.218c-.224 0-.405.181-.405.405zm12.17 15.822H11.359V8.217h8.114v2.84c0 .224.181.406.405.406h2.84v12.17z" transform="translate(-503 -288) translate(0 288) translate(503)"/>
                        <path d="M13.387 11.463h4.057c.224 0 .406-.182.406-.406 0-.224-.182-.406-.406-.406h-4.057c-.224 0-.405.182-.405.406 0 .224.181.406.405.406zM12.982 13.491c0 .224.181.406.405.406h7.303c.224 0 .405-.182.405-.406 0-.224-.181-.406-.405-.406h-7.303c-.224 0-.405.182-.405.406zM13.387 16.33h7.303c.224 0 .405-.18.405-.405 0-.224-.181-.406-.405-.406h-7.303c-.224 0-.405.182-.405.406 0 .224.181.406.405.406zM13.387 18.765h7.303c.224 0 .405-.182.405-.406 0-.224-.181-.406-.405-.406h-7.303c-.224 0-.405.182-.405.406 0 .224.181.406.405.406zM20.284 20.793c0-.224-.182-.406-.406-.406h-6.49c-.225 0-.406.182-.406.406 0 .224.181.406.405.406h6.491c.224 0 .406-.182.406-.406zM15.633 4.14c.16.154.412.152.569-.005.156-.156.159-.41.005-.569l-1.029-1.028h6.323c.224 0 .406.181.406.405V7c0 .224.181.406.405.406.224 0 .406-.182.406-.406V2.943c0-.672-.545-1.217-1.217-1.217h-6.323L16.207.697c.105-.101.148-.252.11-.394-.037-.142-.147-.253-.29-.29-.141-.037-.292.005-.394.11l-1.721 1.722c-.158.159-.158.415 0 .574l1.721 1.721zM7.085 20.408c-.102-.106-.253-.148-.395-.11-.142.036-.252.147-.29.289-.037.142.006.293.111.394l1.029 1.03h-4.7c-.224 0-.406-.182-.406-.406V19.17c0-.224-.182-.405-.406-.405-.224 0-.405.181-.405.405v2.435c0 .672.545 1.217 1.217 1.217h4.7L6.51 23.85c-.105.102-.148.253-.11.395.037.142.147.252.29.29.141.037.292-.006.394-.111l1.721-1.721c.158-.159.158-.416 0-.574l-1.721-1.721zM21.095 22.01h-1.217c-.224 0-.405.182-.405.406 0 .224.181.406.405.406h1.623c.224 0 .406-.182.406-.406v-1.623c0-.224-.182-.406-.406-.406-.224 0-.406.182-.406.406v1.217zM2.434 2.538h1.217c.224 0 .406-.182.406-.406 0-.224-.182-.406-.406-.406H2.028c-.224 0-.405.182-.405.406v1.623c0 .224.181.405.405.405.224 0 .406-.181.406-.405V2.538z" transform="translate(-503 -288) translate(0 288) translate(503)"/>
                    </g>
                </g>
            </g>
        </g>
    </g>
</svg>
