<svg xmlns="http://www.w3.org/2000/svg" width="19" height="18" viewBox="0 0 19 18">
    <g fill="none" fill-rule="evenodd">
        <g fill="#D0021B" fill-rule="nonzero">
            <g>
                <g>
                    <g>
                        <g>
                            <path d="M9 0C4.036 0 0 4.036 0 9s4.036 9 9 9 9-4.036 9-9-4.036-9-9-9zM1.895 9c0-1.61.55-3.107 1.459-4.301l9.947 9.947c-1.194.91-2.69 1.46-4.301 1.46-3.922 0-7.105-3.184-7.105-7.106zm12.751 4.301L4.7 3.354c1.194-.91 2.69-1.46 4.301-1.46 3.922 0 7.105 3.184 7.105 7.106 0 1.61-.55 3.107-1.459 4.301z" transform="translate(-1419 -1122) translate(64 724) translate(23.907 16) translate(5.244 334) translate(0 35.42) translate(1326.35 12.58)"/>
                        </g>
                    </g>
                </g>
            </g>
        </g>
    </g>
</svg>
