<svg xmlns="http://www.w3.org/2000/svg" width="16" height="13" viewBox="0 0 16 13">
    <g fill="none" fill-rule="evenodd">
        <g fill="#56A9FF" fill-rule="nonzero">
            <g>
                <g>
                    <g>
                        <path d="M7.78 0c-.715 0-1.297.628-1.297 1.4H1.297C.582 1.4 0 2.027 0 2.799v8.397c0 .772.582 1.4 1.297 1.4h12.965c.715 0 1.297-.628 1.297-1.4V2.8c0-.772-.582-1.4-1.297-1.4H9.076C9.076.629 8.494 0 7.78 0zm0 .7c.357 0 .648.314.648.7v1.399H7.13v-1.4c0-.385.29-.7.649-.7zM4.862 3.499c.894 0 1.62.785 1.62 1.75 0 .964-.726 1.748-1.62 1.748-.894 0-1.62-.784-1.62-1.749 0-.964.726-1.75 1.62-1.75zm0 .7c-.536 0-.972.47-.972 1.05 0 .578.436 1.049.972 1.049s.973-.471.973-1.05c0-.579-.437-1.05-.973-1.05zm3.242 2.099h5.186c.18 0 .324.156.324.35 0 .193-.145.35-.324.35H8.104c-.18 0-.324-.157-.324-.35 0-.194.145-.35.324-.35zm-3.242 1.05c.894 0 1.7.392 2.217.721.432.276.7.81.7 1.394v.224c0 .446-.31.81-.694.81H2.64c-.383 0-.694-.364-.694-.81v-.224c0-.584.268-1.118.7-1.394.518-.329 1.323-.722 2.217-.722zm0 .7c-.748 0-1.44.34-1.888.624-.231.148-.38.458-.38.791v.224c0 .073.038.11.045.11h4.446c.008 0 .046-.037.046-.11v-.224c0-.333-.15-.643-.381-.79-.448-.286-1.14-.626-1.888-.626zm4.538.35h3.89c.18 0 .324.156.324.35 0 .193-.145.349-.324.349H9.4c-.18 0-.324-.156-.324-.35 0-.193.145-.35.324-.35z" transform="translate(-40 -418) translate(24 348) translate(16 68) translate(0 2)"/>
                    </g>
                </g>
            </g>
        </g>
    </g>
</svg>
